<svg xmlns="http://www.w3.org/2000/svg" xmlns:xlink="http://www.w3.org/1999/xlink" version="1.1" width="256" height="256" viewBox="0 0 256 256" xml:space="preserve">

<defs>
</defs>
<g style="stroke: none; stroke-width: 0; stroke-dasharray: none; stroke-linecap: butt; stroke-linejoin: miter; stroke-miterlimit: 10; fill: none; fill-rule: nonzero; opacity: 1;" transform="translate(1.4065934065934016 1.4065934065934016) scale(2.81 2.81)" >
	<path d="M 22.242 73.944 h 2.667 c 0.552 0 1 -0.447 1 -1 s -0.448 -1 -1 -1 h -2.667 l 1.334 -2.311 c 0.276 -0.479 0.112 -1.09 -0.366 -1.366 c -0.48 -0.276 -1.09 -0.111 -1.366 0.366 l -1.334 2.31 l -1.334 -2.31 c -0.276 -0.479 -0.887 -0.643 -1.366 -0.366 c -0.479 0.276 -0.642 0.888 -0.366 1.366 l 1.334 2.311 h -2.668 c -0.552 0 -1 0.447 -1 1 s 0.448 1 1 1 h 2.668 l -1.334 2.311 c -0.276 0.479 -0.112 1.09 0.366 1.366 c 0.158 0.091 0.33 0.134 0.499 0.134 c 0.346 0 0.682 -0.18 0.867 -0.5 l 1.334 -2.31 l 1.334 2.31 c 0.186 0.321 0.521 0.5 0.867 0.5 c 0.169 0 0.341 -0.043 0.499 -0.134 c 0.479 -0.276 0.642 -0.888 0.366 -1.366 L 22.242 73.944 z" style="stroke: none; stroke-width: 1; stroke-dasharray: none; stroke-linecap: butt; stroke-linejoin: miter; stroke-miterlimit: 10; fill: rgb(0,0,0); fill-rule: nonzero; opacity: 1;" transform=" matrix(1 0 0 1 0 0) " stroke-linecap="round" />
	<path d="M 34.329 84.189 h -2.667 l 1.334 -2.311 c 0.276 -0.479 0.112 -1.09 -0.366 -1.366 c -0.48 -0.277 -1.09 -0.111 -1.366 0.366 l -1.334 2.31 l -1.334 -2.31 c -0.276 -0.479 -0.887 -0.644 -1.366 -0.366 c -0.479 0.276 -0.642 0.888 -0.366 1.366 l 1.334 2.311 h -2.668 c -0.552 0 -1 0.447 -1 1 s 0.448 1 1 1 h 2.668 L 26.863 88.5 c -0.276 0.479 -0.112 1.09 0.366 1.366 C 27.387 89.957 27.559 90 27.728 90 c 0.346 0 0.682 -0.18 0.867 -0.5 l 1.334 -2.31 l 1.334 2.31 c 0.186 0.321 0.521 0.5 0.867 0.5 c 0.169 0 0.341 -0.043 0.499 -0.134 c 0.479 -0.276 0.642 -0.888 0.366 -1.366 l -1.334 -2.311 h 2.667 c 0.552 0 1 -0.447 1 -1 S 34.881 84.189 34.329 84.189 z" style="stroke: none; stroke-width: 1; stroke-dasharray: none; stroke-linecap: butt; stroke-linejoin: miter; stroke-miterlimit: 10; fill: rgb(0,0,0); fill-rule: nonzero; opacity: 1;" transform=" matrix(1 0 0 1 0 0) " stroke-linecap="round" />
	<path d="M 45.632 71.944 h -2.668 l 1.334 -2.311 c 0.276 -0.479 0.112 -1.09 -0.366 -1.366 c -0.48 -0.276 -1.091 -0.111 -1.366 0.366 l -1.334 2.31 l -1.334 -2.31 c -0.277 -0.479 -0.887 -0.643 -1.366 -0.366 c -0.479 0.276 -0.642 0.888 -0.366 1.366 l 1.334 2.311 h -2.667 c -0.552 0 -1 0.447 -1 1 s 0.448 1 1 1 H 39.5 l -1.334 2.311 c -0.276 0.479 -0.112 1.09 0.366 1.366 c 0.158 0.091 0.33 0.134 0.499 0.134 c 0.346 0 0.682 -0.18 0.867 -0.5 l 1.334 -2.31 l 1.334 2.31 c 0.186 0.321 0.521 0.5 0.867 0.5 c 0.169 0 0.341 -0.043 0.499 -0.134 c 0.479 -0.276 0.642 -0.888 0.366 -1.366 l -1.334 -2.311 h 2.668 c 0.552 0 1 -0.447 1 -1 S 46.185 71.944 45.632 71.944 z" style="stroke: none; stroke-width: 1; stroke-dasharray: none; stroke-linecap: butt; stroke-linejoin: miter; stroke-miterlimit: 10; fill: rgb(0,0,0); fill-rule: nonzero; opacity: 1;" transform=" matrix(1 0 0 1 0 0) " stroke-linecap="round" />
	<path d="M 56.936 84.189 h -2.668 l 1.334 -2.311 c 0.276 -0.479 0.112 -1.09 -0.366 -1.366 c -0.478 -0.276 -1.09 -0.112 -1.366 0.366 l -1.333 2.31 l -1.333 -2.31 c -0.276 -0.479 -0.89 -0.643 -1.366 -0.366 c -0.479 0.276 -0.643 0.888 -0.366 1.366 l 1.334 2.311 h -2.668 c -0.553 0 -1 0.447 -1 1 s 0.447 1 1 1 h 2.668 L 49.47 88.5 c -0.276 0.479 -0.112 1.09 0.366 1.366 C 49.993 89.957 50.165 90 50.335 90 c 0.346 0 0.682 -0.18 0.867 -0.5 l 1.333 -2.31 l 1.333 2.31 c 0.186 0.321 0.521 0.5 0.867 0.5 c 0.17 0 0.342 -0.043 0.499 -0.134 c 0.479 -0.276 0.643 -0.888 0.366 -1.366 l -1.334 -2.311 h 2.668 c 0.553 0 1 -0.447 1 -1 S 57.488 84.189 56.936 84.189 z" style="stroke: none; stroke-width: 1; stroke-dasharray: none; stroke-linecap: butt; stroke-linejoin: miter; stroke-miterlimit: 10; fill: rgb(0,0,0); fill-rule: nonzero; opacity: 1;" transform=" matrix(1 0 0 1 0 0) " stroke-linecap="round" />
	<path d="M 66.354 71.944 h -2.667 l 1.334 -2.311 c 0.276 -0.479 0.112 -1.09 -0.366 -1.366 c -0.478 -0.275 -1.09 -0.114 -1.366 0.366 l -1.334 2.31 l -1.334 -2.31 c -0.277 -0.48 -0.89 -0.642 -1.366 -0.366 c -0.479 0.276 -0.643 0.888 -0.366 1.366 l 1.334 2.311 h -2.668 c -0.553 0 -1 0.447 -1 1 s 0.447 1 1 1 h 2.668 l -1.334 2.311 c -0.276 0.479 -0.112 1.09 0.366 1.366 c 0.157 0.091 0.329 0.134 0.499 0.134 c 0.346 0 0.682 -0.179 0.867 -0.5 l 1.334 -2.31 l 1.334 2.31 c 0.186 0.321 0.521 0.5 0.867 0.5 c 0.17 0 0.342 -0.043 0.499 -0.134 c 0.479 -0.276 0.643 -0.888 0.366 -1.366 l -1.334 -2.311 h 2.667 c 0.553 0 1 -0.447 1 -1 S 66.907 71.944 66.354 71.944 z" style="stroke: none; stroke-width: 1; stroke-dasharray: none; stroke-linecap: butt; stroke-linejoin: miter; stroke-miterlimit: 10; fill: rgb(0,0,0); fill-rule: nonzero; opacity: 1;" transform=" matrix(1 0 0 1 0 0) " stroke-linecap="round" />
	<circle cx="55.69200000000001" cy="28.432000000000002" r="16.632" style="stroke: none; stroke-width: 1; stroke-dasharray: none; stroke-linecap: butt; stroke-linejoin: miter; stroke-miterlimit: 10; fill: rgb(249,193,0); fill-rule: nonzero; opacity: 1;" transform="  matrix(1 0 0 1 0 0) "/>
	<path d="M 55.697 46.065 c -9.723 0 -17.632 -7.91 -17.632 -17.632 c 0 -9.723 7.91 -17.632 17.632 -17.632 s 17.632 7.91 17.632 17.632 C 73.329 38.156 65.42 46.065 55.697 46.065 z M 55.697 12.801 c -8.62 0 -15.632 7.013 -15.632 15.632 s 7.012 15.632 15.632 15.632 c 8.619 0 15.632 -7.012 15.632 -15.632 S 64.316 12.801 55.697 12.801 z" style="stroke: none; stroke-width: 1; stroke-dasharray: none; stroke-linecap: butt; stroke-linejoin: miter; stroke-miterlimit: 10; fill: rgb(0,0,0); fill-rule: nonzero; opacity: 1;" transform=" matrix(1 0 0 1 0 0) " stroke-linecap="round" />
	<path d="M 55.697 7.645 c -0.553 0 -1 -0.448 -1 -1 V 1 c 0 -0.552 0.447 -1 1 -1 s 1 0.448 1 1 v 5.645 C 56.697 7.197 56.25 7.645 55.697 7.645 z" style="stroke: none; stroke-width: 1; stroke-dasharray: none; stroke-linecap: butt; stroke-linejoin: miter; stroke-miterlimit: 10; fill: rgb(0,0,0); fill-rule: nonzero; opacity: 1;" transform=" matrix(1 0 0 1 0 0) " stroke-linecap="round" />
	<path d="M 83.131 29.434 h -5.645 c -0.553 0 -1 -0.448 -1 -1 s 0.447 -1 1 -1 h 5.645 c 0.553 0 1 0.448 1 1 S 83.684 29.434 83.131 29.434 z" style="stroke: none; stroke-width: 1; stroke-dasharray: none; stroke-linecap: butt; stroke-linejoin: miter; stroke-miterlimit: 10; fill: rgb(0,0,0); fill-rule: nonzero; opacity: 1;" transform=" matrix(1 0 0 1 0 0) " stroke-linecap="round" />
	<path d="M 40.29 14.026 c -0.256 0 -0.512 -0.098 -0.707 -0.293 l -3.991 -3.991 c -0.391 -0.391 -0.391 -1.023 0 -1.414 s 1.023 -0.391 1.414 0 l 3.991 3.991 c 0.391 0.391 0.391 1.023 0 1.414 C 40.802 13.929 40.546 14.026 40.29 14.026 z" style="stroke: none; stroke-width: 1; stroke-dasharray: none; stroke-linecap: butt; stroke-linejoin: miter; stroke-miterlimit: 10; fill: rgb(0,0,0); fill-rule: nonzero; opacity: 1;" transform=" matrix(1 0 0 1 0 0) " stroke-linecap="round" />
	<path d="M 71.104 14.026 c -0.256 0 -0.512 -0.098 -0.707 -0.293 c -0.391 -0.391 -0.391 -1.023 0 -1.414 l 3.991 -3.991 c 0.391 -0.391 1.023 -0.391 1.414 0 s 0.391 1.023 0 1.414 l -3.991 3.991 C 71.616 13.929 71.36 14.026 71.104 14.026 z" style="stroke: none; stroke-width: 1; stroke-dasharray: none; stroke-linecap: butt; stroke-linejoin: miter; stroke-miterlimit: 10; fill: rgb(0,0,0); fill-rule: nonzero; opacity: 1;" transform=" matrix(1 0 0 1 0 0) " stroke-linecap="round" />
	<path d="M 14.458 40.128 c -0.027 -0.411 -0.046 -0.824 -0.046 -1.242 c 0 -10.182 8.254 -18.436 18.436 -18.436 c 7.366 0 13.721 4.321 16.674 10.566 c 2.224 -1.579 4.935 -2.516 7.87 -2.516 c 6.791 0 12.405 4.975 13.437 11.475 c 4.676 1.28 8.117 5.547 8.117 10.629 c 0 6.092 -4.939 11.031 -11.031 11.031 H 17.9 c -6.092 0 -11.031 -4.939 -11.031 -11.031 C 6.869 45.714 10.053 41.575 14.458 40.128 z" style="stroke: none; stroke-width: 1; stroke-dasharray: none; stroke-linecap: butt; stroke-linejoin: miter; stroke-miterlimit: 10; fill: rgb(98,195,247); fill-rule: nonzero; opacity: 1;" transform=" matrix(1 0 0 1 0 0) " stroke-linecap="round" />
	<path d="M 67.915 62.634 H 17.9 c -6.634 0 -12.031 -5.396 -12.031 -12.03 c 0 -4.95 3.004 -9.343 7.552 -11.162 c -0.006 -0.185 -0.01 -0.369 -0.01 -0.555 c 0 -10.717 8.719 -19.437 19.437 -19.437 c 7.096 0 13.672 3.937 17.059 10.121 c 2.266 -1.358 4.831 -2.071 7.485 -2.071 c 7.013 0 12.935 4.881 14.312 11.695 c 4.884 1.62 8.242 6.223 8.242 11.409 C 79.946 57.237 74.549 62.634 67.915 62.634 z M 32.849 21.45 c -9.615 0 -17.437 7.822 -17.437 17.437 c 0 0.395 0.018 0.786 0.044 1.175 c 0.031 0.456 -0.251 0.874 -0.686 1.017 c -4.127 1.355 -6.901 5.184 -6.901 9.525 c 0 5.53 4.5 10.03 10.031 10.03 h 50.015 c 5.531 0 10.031 -4.5 10.031 -10.03 c 0 -4.501 -3.035 -8.476 -7.381 -9.665 c -0.379 -0.104 -0.662 -0.419 -0.724 -0.808 c -0.979 -6.161 -6.214 -10.632 -12.449 -10.632 c -2.622 0 -5.143 0.806 -7.291 2.332 c -0.241 0.171 -0.55 0.227 -0.832 0.152 c -0.286 -0.075 -0.524 -0.272 -0.651 -0.54 C 45.748 25.373 39.558 21.45 32.849 21.45 z" style="stroke: none; stroke-width: 1; stroke-dasharray: none; stroke-linecap: butt; stroke-linejoin: miter; stroke-miterlimit: 10; fill: rgb(0,0,0); fill-rule: nonzero; opacity: 1;" transform=" matrix(1 0 0 1 0 0) " stroke-linecap="round" />
</g>
</svg>