<svg xmlns="http://www.w3.org/2000/svg" xmlns:xlink="http://www.w3.org/1999/xlink" version="1.1" width="256" height="256" viewBox="0 0 256 256" xml:space="preserve">

<defs>
</defs>
<g style="stroke: none; stroke-width: 0; stroke-dasharray: none; stroke-linecap: butt; stroke-linejoin: miter; stroke-miterlimit: 10; fill: none; fill-rule: nonzero; opacity: 1;" transform="translate(1.4065934065934016 1.4065934065934016) scale(2.81 2.81)" >
	<path d="M 64.826 58.133 L 64.826 58.133 c -16.025 0 -29.015 -12.99 -29.015 -29.015 v 0 c 0 -5.102 1.321 -9.894 3.634 -14.06 c -12.454 3.262 -21.643 14.59 -21.643 28.067 v 0 c 0 16.024 12.99 29.015 29.015 29.015 h 0 c 10.922 0 20.43 -6.038 25.381 -14.955 C 69.844 57.802 67.374 58.133 64.826 58.133 z" style="stroke: none; stroke-width: 1; stroke-dasharray: none; stroke-linecap: butt; stroke-linejoin: miter; stroke-miterlimit: 10; fill: rgb(254,224,76); fill-rule: nonzero; opacity: 1;" transform=" matrix(1 0 0 1 0 0) " stroke-linecap="round" />
	<path d="M 4.68 28.31 c -0.256 0 -0.512 -0.098 -0.707 -0.293 c -0.391 -0.391 -0.391 -1.024 0 -1.415 l 22.62 -22.62 c 0.391 -0.391 1.024 -0.391 1.415 0 c 0.391 0.391 0.391 1.024 0 1.415 l -22.62 22.62 C 5.192 28.213 4.936 28.31 4.68 28.31 z" style="stroke: none; stroke-width: 1; stroke-dasharray: none; stroke-linecap: butt; stroke-linejoin: miter; stroke-miterlimit: 10; fill: rgb(114,114,112); fill-rule: nonzero; opacity: 1;" transform=" matrix(1 0 0 1 0 0) " stroke-linecap="round" />
	<path d="M 62.694 86.323 c -0.256 0 -0.512 -0.098 -0.707 -0.293 c -0.391 -0.391 -0.391 -1.024 0 -1.415 l 22.618 -22.619 c 0.391 -0.391 1.024 -0.391 1.415 0 c 0.391 0.391 0.391 1.024 0 1.415 L 63.401 86.03 C 63.206 86.225 62.95 86.323 62.694 86.323 z" style="stroke: none; stroke-width: 1; stroke-dasharray: none; stroke-linecap: butt; stroke-linejoin: miter; stroke-miterlimit: 10; fill: rgb(114,114,112); fill-rule: nonzero; opacity: 1;" transform=" matrix(1 0 0 1 0 0) " stroke-linecap="round" />
	<path d="M 89.707 45.417 c -0.391 -0.391 -1.024 -0.391 -1.415 0 L 77.089 56.62 l -1.392 2.508 c -1.22 2.198 -2.682 4.21 -4.322 6.036 l 18.332 -18.332 C 90.097 46.441 90.097 45.808 89.707 45.417 z" style="stroke: none; stroke-width: 1; stroke-dasharray: none; stroke-linecap: butt; stroke-linejoin: miter; stroke-miterlimit: 10; fill: rgb(114,114,112); fill-rule: nonzero; opacity: 1;" transform=" matrix(1 0 0 1 0 0) " stroke-linecap="round" />
	<path d="M 60.611 73.098 L 45.42 88.289 c -0.391 0.391 -0.391 1.024 0 1.415 c 0.195 0.195 0.451 0.293 0.707 0.293 c 0.256 0 0.512 -0.098 0.707 -0.293 l 21.888 -21.888 C 66.291 69.972 63.553 71.742 60.611 73.098 z" style="stroke: none; stroke-width: 1; stroke-dasharray: none; stroke-linecap: butt; stroke-linejoin: miter; stroke-miterlimit: 10; fill: rgb(114,114,112); fill-rule: nonzero; opacity: 1;" transform=" matrix(1 0 0 1 0 0) " stroke-linecap="round" />
	<path d="M 53.637 67.181 c 1.645 -0.467 3.224 -1.115 4.73 -1.901 l 3.299 -3.299 c -0.84 -0.08 -1.669 -0.197 -2.49 -0.34 L 53.637 67.181 z" style="stroke: none; stroke-width: 1; stroke-dasharray: none; stroke-linecap: butt; stroke-linejoin: miter; stroke-miterlimit: 10; fill: rgb(232,204,66); fill-rule: nonzero; opacity: 1;" transform=" matrix(1 0 0 1 0 0) " stroke-linecap="round" />
	<path d="M 88.464 33.769 c -0.391 -0.391 -1.024 -0.391 -1.415 0 L 66.77 54.047 c 1.115 -0.086 2.221 -0.248 3.311 -0.482 l 18.382 -18.382 C 88.855 34.793 88.855 34.159 88.464 33.769 z" style="stroke: none; stroke-width: 1; stroke-dasharray: none; stroke-linecap: butt; stroke-linejoin: miter; stroke-miterlimit: 10; fill: rgb(114,114,112); fill-rule: nonzero; opacity: 1;" transform=" matrix(1 0 0 1 0 0) " stroke-linecap="round" />
	<path d="M 46.817 76.142 c -0.696 0 -1.385 -0.029 -2.07 -0.072 L 33.773 87.045 c -0.391 0.391 -0.391 1.024 0 1.415 c 0.195 0.195 0.451 0.293 0.707 0.293 c 0.256 0 0.512 -0.098 0.707 -0.293 l 12.342 -12.342 C 47.292 76.123 47.056 76.142 46.817 76.142 z" style="stroke: none; stroke-width: 1; stroke-dasharray: none; stroke-linecap: butt; stroke-linejoin: miter; stroke-miterlimit: 10; fill: rgb(114,114,112); fill-rule: nonzero; opacity: 1;" transform=" matrix(1 0 0 1 0 0) " stroke-linecap="round" />
	<path d="M 40.576 67.35 c 0.768 0.198 1.552 0.358 2.346 0.483 l 8.536 -8.536 c -0.647 -0.288 -1.288 -0.59 -1.912 -0.917 L 40.576 67.35 z" style="stroke: none; stroke-width: 1; stroke-dasharray: none; stroke-linecap: butt; stroke-linejoin: miter; stroke-miterlimit: 10; fill: rgb(232,204,66); fill-rule: nonzero; opacity: 1;" transform=" matrix(1 0 0 1 0 0) " stroke-linecap="round" />
	<path d="M 84.648 24.692 c -0.391 -0.391 -1.024 -0.391 -1.415 0 L 55.576 52.35 c 0.685 0.274 1.384 0.52 2.097 0.733 l 26.976 -26.976 C 85.039 25.716 85.039 25.083 84.648 24.692 z" style="stroke: none; stroke-width: 1; stroke-dasharray: none; stroke-linecap: butt; stroke-linejoin: miter; stroke-miterlimit: 10; fill: rgb(114,114,112); fill-rule: nonzero; opacity: 1;" transform=" matrix(1 0 0 1 0 0) " stroke-linecap="round" />
	<path d="M 34.268 73.658 l -9.612 9.612 c -0.391 0.391 -0.391 1.024 0 1.415 c 0.195 0.195 0.451 0.293 0.707 0.293 s 0.512 -0.098 0.707 -0.293 l 10.26 -10.26 C 35.633 74.19 34.944 73.937 34.268 73.658 z" style="stroke: none; stroke-width: 1; stroke-dasharray: none; stroke-linecap: butt; stroke-linejoin: miter; stroke-miterlimit: 10; fill: rgb(114,114,112); fill-rule: nonzero; opacity: 1;" transform=" matrix(1 0 0 1 0 0) " stroke-linecap="round" />
	<path d="M 43.537 54.326 c -0.51 -0.432 -1.012 -0.873 -1.495 -1.334 L 31.867 63.167 c 0.543 0.406 1.106 0.786 1.682 1.148 L 43.537 54.326 z" style="stroke: none; stroke-width: 1; stroke-dasharray: none; stroke-linecap: butt; stroke-linejoin: miter; stroke-miterlimit: 10; fill: rgb(232,204,66); fill-rule: nonzero; opacity: 1;" transform=" matrix(1 0 0 1 0 0) " stroke-linecap="round" />
	<path d="M 49.22 48.644 L 79.774 18.09 c 0.391 -0.391 0.391 -1.024 0 -1.415 c -0.391 -0.391 -1.024 -0.391 -1.415 0 L 47.705 47.328 C 48.193 47.786 48.697 48.225 49.22 48.644 z" style="stroke: none; stroke-width: 1; stroke-dasharray: none; stroke-linecap: butt; stroke-linejoin: miter; stroke-miterlimit: 10; fill: rgb(114,114,112); fill-rule: nonzero; opacity: 1;" transform=" matrix(1 0 0 1 0 0) " stroke-linecap="round" />
	<path d="M 26.17 68.863 l -9.504 9.504 c -0.391 0.391 -0.391 1.024 0 1.415 c 0.195 0.195 0.451 0.293 0.707 0.293 s 0.512 -0.098 0.707 -0.293 l 9.703 -9.703 C 27.234 69.689 26.695 69.285 26.17 68.863 z" style="stroke: none; stroke-width: 1; stroke-dasharray: none; stroke-linecap: butt; stroke-linejoin: miter; stroke-miterlimit: 10; fill: rgb(114,114,112); fill-rule: nonzero; opacity: 1;" transform=" matrix(1 0 0 1 0 0) " stroke-linecap="round" />
	<path d="M 37.442 47.53 c -0.382 -0.566 -0.752 -1.14 -1.099 -1.73 L 25.675 56.467 c 0.364 0.574 0.746 1.135 1.153 1.676 L 37.442 47.53 z" style="stroke: none; stroke-width: 1; stroke-dasharray: none; stroke-linecap: butt; stroke-linejoin: miter; stroke-miterlimit: 10; fill: rgb(232,204,66); fill-rule: nonzero; opacity: 1;" transform=" matrix(1 0 0 1 0 0) " stroke-linecap="round" />
	<path d="M 19.913 62.229 l -9.693 9.693 c -0.391 0.391 -0.391 1.024 0 1.415 c 0.195 0.195 0.451 0.293 0.707 0.293 c 0.256 0 0.512 -0.098 0.707 -0.293 l 9.497 -9.497 C 20.709 63.316 20.304 62.778 19.913 62.229 z" style="stroke: none; stroke-width: 1; stroke-dasharray: none; stroke-linecap: butt; stroke-linejoin: miter; stroke-miterlimit: 10; fill: rgb(114,114,112); fill-rule: nonzero; opacity: 1;" transform=" matrix(1 0 0 1 0 0) " stroke-linecap="round" />
	<path d="M 43.24 41.731 l 30.28 -30.28 c 0.391 -0.391 0.391 -1.024 0 -1.415 c -0.391 -0.391 -1.024 -0.391 -1.415 0 L 42.254 39.888 C 42.556 40.518 42.888 41.131 43.24 41.731 z" style="stroke: none; stroke-width: 1; stroke-dasharray: none; stroke-linecap: butt; stroke-linejoin: miter; stroke-miterlimit: 10; fill: rgb(114,114,112); fill-rule: nonzero; opacity: 1;" transform=" matrix(1 0 0 1 0 0) " stroke-linecap="round" />
	<path d="M 33.266 38.814 c -0.226 -0.733 -0.422 -1.479 -0.597 -2.233 L 22.127 47.123 c 0.128 0.792 0.291 1.572 0.492 2.338 L 33.266 38.814 z" style="stroke: none; stroke-width: 1; stroke-dasharray: none; stroke-linecap: butt; stroke-linejoin: miter; stroke-miterlimit: 10; fill: rgb(232,204,66); fill-rule: nonzero; opacity: 1;" transform=" matrix(1 0 0 1 0 0) " stroke-linecap="round" />
	<path d="M 15.548 53.703 l -10.23 10.23 c -0.391 0.391 -0.391 1.024 0 1.415 c 0.195 0.195 0.451 0.293 0.707 0.293 c 0.256 0 0.512 -0.098 0.707 -0.293 l 9.585 -9.585 C 16.038 55.087 15.784 54.399 15.548 53.703 z" style="stroke: none; stroke-width: 1; stroke-dasharray: none; stroke-linecap: butt; stroke-linejoin: miter; stroke-miterlimit: 10; fill: rgb(114,114,112); fill-rule: nonzero; opacity: 1;" transform=" matrix(1 0 0 1 0 0) " stroke-linecap="round" />
	<path d="M 39.995 32.085 L 65.311 6.769 c 0.391 -0.391 0.391 -1.024 0 -1.415 c -0.391 -0.391 -1.024 -0.391 -1.415 0 L 39.821 29.43 C 39.832 30.327 39.892 31.212 39.995 32.085 z" style="stroke: none; stroke-width: 1; stroke-dasharray: none; stroke-linecap: butt; stroke-linejoin: miter; stroke-miterlimit: 10; fill: rgb(114,114,112); fill-rule: nonzero; opacity: 1;" transform=" matrix(1 0 0 1 0 0) " stroke-linecap="round" />
	<path d="M 43.889 15.3 L 56.234 2.954 c 0.391 -0.391 0.391 -1.024 0 -1.415 s -1.024 -0.391 -1.415 0 l -7.398 7.398 L 43.889 15.3 z" style="stroke: none; stroke-width: 1; stroke-dasharray: none; stroke-linecap: butt; stroke-linejoin: miter; stroke-miterlimit: 10; fill: rgb(114,114,112); fill-rule: nonzero; opacity: 1;" transform=" matrix(1 0 0 1 0 0) " stroke-linecap="round" />
	<path d="M 31.862 27.327 c 0.058 -1.056 0.164 -2.108 0.322 -3.152 l -7.697 7.697 c -0.738 1.463 -1.332 3.003 -1.774 4.603 L 31.862 27.327 z" style="stroke: none; stroke-width: 1; stroke-dasharray: none; stroke-linecap: butt; stroke-linejoin: miter; stroke-miterlimit: 10; fill: rgb(232,204,66); fill-rule: nonzero; opacity: 1;" transform=" matrix(1 0 0 1 0 0) " stroke-linecap="round" />
	<path d="M 13.8 43.125 c 0 -0.194 0.009 -0.386 0.012 -0.578 L 1.544 54.816 c -0.391 0.391 -0.391 1.024 0 1.415 c 0.195 0.195 0.451 0.293 0.707 0.293 s 0.512 -0.098 0.707 -0.293 L 13.88 45.309 C 13.833 44.586 13.8 43.86 13.8 43.125 z" style="stroke: none; stroke-width: 1; stroke-dasharray: none; stroke-linecap: butt; stroke-linejoin: miter; stroke-miterlimit: 10; fill: rgb(114,114,112); fill-rule: nonzero; opacity: 1;" transform=" matrix(1 0 0 1 0 0) " stroke-linecap="round" />
	<path d="M 33.303 12.994 L 44.586 1.711 c 0.391 -0.391 0.391 -1.024 0 -1.415 s -1.024 -0.391 -1.415 0 L 25.826 17.641 C 28.076 15.785 30.582 14.213 33.303 12.994 z" style="stroke: none; stroke-width: 1; stroke-dasharray: none; stroke-linecap: butt; stroke-linejoin: miter; stroke-miterlimit: 10; fill: rgb(114,114,112); fill-rule: nonzero; opacity: 1;" transform=" matrix(1 0 0 1 0 0) " stroke-linecap="round" />
	<path d="M 21.345 22.122 L 0.293 43.174 c -0.391 0.391 -0.391 1.024 0 1.415 C 0.488 44.785 0.744 44.882 1 44.882 s 0.512 -0.098 0.707 -0.293 l 14.995 -14.995 C 17.914 26.9 19.478 24.388 21.345 22.122 z" style="stroke: none; stroke-width: 1; stroke-dasharray: none; stroke-linecap: butt; stroke-linejoin: miter; stroke-miterlimit: 10; fill: rgb(114,114,112); fill-rule: nonzero; opacity: 1;" transform=" matrix(1 0 0 1 0 0) " stroke-linecap="round" />
</g>
</svg>