<svg xmlns="http://www.w3.org/2000/svg" xmlns:xlink="http://www.w3.org/1999/xlink" version="1.1" width="256" height="256" viewBox="0 0 256 256" xml:space="preserve">

<defs>
</defs>
<g style="stroke: none; stroke-width: 0; stroke-dasharray: none; stroke-linecap: butt; stroke-linejoin: miter; stroke-miterlimit: 10; fill: none; fill-rule: nonzero; opacity: 1;" transform="translate(1.4065934065934016 1.4065934065934016) scale(2.81 2.81)" >
	<path d="M 43.021 31.717 c 0 -10.793 3.893 -20.672 10.344 -28.326 c 0.785 -0.931 0.158 -2.341 -1.06 -2.375 C 51.918 1.006 51.529 1 51.138 1 c -24.327 0 -44.043 19.743 -44 44.08 C 7.18 68.446 25.897 87.978 49.242 88.96 c 12.11 0.509 23.186 -3.886 31.425 -11.355 c 0.89 -0.807 0.418 -2.275 -0.767 -2.468 C 58.986 71.733 43.021 53.592 43.021 31.717 z" style="stroke: none; stroke-width: 1; stroke-dasharray: none; stroke-linecap: butt; stroke-linejoin: miter; stroke-miterlimit: 10; fill: rgb(239,226,58); fill-rule: nonzero; opacity: 1;" transform=" matrix(1 0 0 1 0 0) " stroke-linecap="round" />
	<path d="M 51.141 90 c -0.646 0 -1.292 -0.014 -1.94 -0.041 C 25.499 88.963 6.181 68.831 6.138 45.082 C 6.117 33.045 10.788 21.726 19.29 13.208 C 27.793 4.691 39.104 0 51.139 0 c 0.399 0 0.799 0.005 1.195 0.017 c 0.948 0.026 1.777 0.578 2.164 1.439 c 0.387 0.863 0.245 1.852 -0.368 2.58 c -6.519 7.734 -10.109 17.565 -10.109 27.681 c 0 21.188 15.157 39.034 36.039 42.433 c 0.943 0.154 1.697 0.817 1.968 1.732 c 0.265 0.894 0.001 1.838 -0.688 2.464 C 73.004 85.901 62.346 90 51.141 90 z M 51.139 2 c -11.5 0 -22.308 4.482 -30.433 12.622 C 12.581 22.76 8.118 33.577 8.138 45.078 c 0.041 22.693 18.499 41.931 41.146 42.883 c 11.382 0.488 22.289 -3.461 30.711 -11.097 c 0.155 -0.14 0.148 -0.304 0.115 -0.415 c -0.025 -0.084 -0.111 -0.283 -0.372 -0.325 c -21.854 -3.557 -37.717 -22.232 -37.717 -44.407 c 0 -10.587 3.757 -20.876 10.58 -28.97 c 0.161 -0.191 0.114 -0.378 0.072 -0.473 c -0.042 -0.093 -0.149 -0.251 -0.396 -0.258 C 51.898 2.005 51.519 2 51.139 2 z" style="stroke: none; stroke-width: 1; stroke-dasharray: none; stroke-linecap: butt; stroke-linejoin: miter; stroke-miterlimit: 10; fill: rgb(0,0,0); fill-rule: nonzero; opacity: 1;" transform=" matrix(1 0 0 1 0 0) " stroke-linecap="round" />
</g>
</svg>