<svg fill="none" height="24" viewBox="0 0 24 24" width="24" xmlns="http://www.w3.org/2000/svg"><g fill="#1c274c"><path d="m12 22c5.5228 0 10-4.4772 10-10 0-.4627-.6935-.5392-.9328-.1432-1.1383 1.8838-3.2057 3.1432-5.5672 3.1432-3.5899 0-6.5-2.9101-6.5-6.5 0-2.36155 1.2594-4.42895 3.1432-5.56724.396-.23929.3195-.93276-.1432-.93276-5.52285 0-10 4.47715-10 10 0 5.5228 4.47715 10 10 10z" opacity=".5"/><path d="m11.2857 22c2.0514 0 3.7143-1.5802 3.7143-3.5294 0-1.5449-1.0446-2.858-2.4992-3.3362-.2067-1.7633-1.7805-3.1344-3.69128-3.1344-2.05134 0-3.71428 1.5802-3.71428 3.5294 0 .4311.08135.8442.23026 1.2261-.17463-.0325-.35511-.0496-.53979-.0496-1.5385 0-2.78571 1.1851-2.78571 2.647 0 1.462 1.24721 2.6471 2.78571 2.6471z"/></g></svg>