<svg xmlns="http://www.w3.org/2000/svg" xmlns:xlink="http://www.w3.org/1999/xlink" version="1.1" x="0px" y="0px" viewBox="0 0 100 125" enable-background="new 0 0 100 100" xml:space="preserve"><path fill-rule="evenodd" clip-rule="evenodd" fill="#000000" d="M72.999,69.265v0.051h-41c-5.522,0-10-4.478-10-10s4.478-10,10-10  c0.699,0,1.381,0.073,2.04,0.209c0.417-9.571,8.286-17.209,17.96-17.209c7.619,0,14.117,4.741,16.744,11.427  c1.043-0.269,2.13-0.427,3.256-0.427c7.18,0,13,5.82,13,13C84.999,63.157,79.71,68.753,72.999,69.265z M32.243,47.328  c-0.082-0.002-0.162-0.012-0.244-0.012c-3.293,0-6.274,1.328-8.442,3.477c-0.708-0.3-1.408-0.634-2.091-1.028  c-2.479-1.43-4.504-3.339-6.038-5.541c-1.395-2.47,1.082-1.892,1.074-1.87c6.945,2.876,15.129,0.215,19.002-6.486  c3.879-6.711,2.084-15.134-3.902-19.701c-0.001,0.037-1.661-1.793,1.039-1.851c2.7,0.218,5.393,1.016,7.894,2.458  c5.22,3.01,8.451,8.13,9.271,13.668C40.781,31.427,33.581,38.416,32.243,47.328z M32.494,71.29c0.26-0.011,0.521-0.017,0.776-0.043  c0.222,3.36,0.378,4.979-0.423,6.367c-0.829,1.436-2.663,1.927-4.099,1.098c-1.435-0.828-1.927-2.662-1.098-4.098  C28.41,73.299,29.783,72.624,32.494,71.29z M39.798,77.697c0.186,2.879,0.342,4.21-0.321,5.357s-2.131,1.541-3.278,0.878  c-1.147-0.662-1.541-2.131-0.879-3.278C35.983,79.507,37.213,78.976,39.798,77.697z M49.249,70.918  c0.232,3.599,0.427,5.261-0.401,6.696c-0.829,1.436-2.663,1.927-4.099,1.098c-1.435-0.828-1.927-2.662-1.098-4.098  C44.479,73.179,46.016,72.517,49.249,70.918z M56.024,78.308c0.209,3.238,0.384,4.735-0.362,6.027  c-0.745,1.291-2.396,1.733-3.688,0.988c-1.292-0.746-1.735-2.397-0.988-3.689C51.731,80.343,53.115,79.746,56.024,78.308z   M66.249,70.918c0.232,3.599,0.427,5.261-0.401,6.696c-0.829,1.436-2.663,1.927-4.099,1.098c-1.435-0.828-1.927-2.662-1.098-4.098  C61.479,73.179,63.017,72.517,66.249,70.918z M75.249,72.918c0.232,3.599,0.427,5.261-0.401,6.696  c-0.829,1.436-2.663,1.927-4.099,1.098c-1.435-0.828-1.927-2.662-1.098-4.098C70.479,75.179,72.017,74.517,75.249,72.918z"/><text x="0" y="115" fill="#000000" font-size="5px" font-weight="bold" font-family="'Helvetica Neue', Helvetica, Arial-Unicode, Arial, Sans-serif">Created by Anusha Narvekar</text><text x="0" y="120" fill="#000000" font-size="5px" font-weight="bold" font-family="'Helvetica Neue', Helvetica, Arial-Unicode, Arial, Sans-serif">from the Noun Project</text></svg>