<svg xmlns="http://www.w3.org/2000/svg" viewBox="0 0 120 150" x="0px" y="0px"><title>235 Thunderstorm Windy</title><polygon points="67.77 73.91 57.41 73.91 50.5 91.18 58.66 91.18 53.95 108.45 69.5 89.45 61.55 89.45 67.77 73.91"/><path d="M29,81.58a1,1,0,0,0-1.33.48L24,89.91a1,1,0,0,0,.48,1.33h0a1,1,0,0,0,1.33-.48l3.66-7.85A1,1,0,0,0,29,81.58Z"/><path d="M44,81.58a1,1,0,0,0-1.33.48L39,89.91a1,1,0,0,0,.48,1.33h0a1,1,0,0,0,1.33-.48l3.66-7.85A1,1,0,0,0,44,81.58Z"/><path d="M81,81.58a1,1,0,0,0-1.33.48L76,89.91a1,1,0,0,0,.48,1.33h0a1,1,0,0,0,1.33-.48l3.66-7.85A1,1,0,0,0,81,81.58Z"/><path d="M96,81.58a1,1,0,0,0-1.33.48L91,89.91a1,1,0,0,0,.48,1.33h0a1,1,0,0,0,1.33-.48l3.66-7.85A1,1,0,0,0,96,81.58Z"/><path d="M32,93.58a1,1,0,0,0-1.33.48L27,101.91a1,1,0,0,0,.48,1.33h0a1,1,0,0,0,1.33-.48l3.66-7.85A1,1,0,0,0,32,93.58Z"/><path d="M47,93.58a1,1,0,0,0-1.33.48L42,101.91a1,1,0,0,0,.48,1.33h0a1,1,0,0,0,1.33-.48l3.66-7.85A1,1,0,0,0,47,93.58Z"/><path d="M84,93.58a1,1,0,0,0-1.33.48L79,101.91a1,1,0,0,0,.48,1.33h0a1,1,0,0,0,1.33-.48l3.66-7.85A1,1,0,0,0,84,93.58Z"/><path d="M108.93,56.05A8,8,0,0,0,103,52.11a8.24,8.24,0,0,0-1-.06,5,5,0,0,0-4.89,4,3.62,3.62,0,0,0-.09.66,1.88,1.88,0,0,0,0,.34,5,5,0,0,0,5,5,4.71,4.71,0,0,0,1-.1,4.31,4.31,0,0,0,1.13-.39,1,1,0,0,0,.57-.9,1,1,0,0,0-1-1,1,1,0,0,0-.4.09,2.72,2.72,0,0,1-.3.13,2.88,2.88,0,0,1-1.32.16,3.29,3.29,0,0,1-2.62-2.4,2.93,2.93,0,0,1,.12-1.58,3,3,0,0,1,2.52-2l.3,0a5.47,5.47,0,0,1,1,.09,6,6,0,0,1,5,5.9,6,6,0,0,1-2,4.5A5.9,5.9,0,0,1,103,66a5.55,5.55,0,0,1-1,.09H75a1,1,0,0,0,0,2h27a8,8,0,0,0,6.92-12Z"/><path d="M72,73a3,3,0,0,1,3-3,3,3,0,0,1,0-6h26.8a7,7,0,0,1-6.79-7,4.48,4.48,0,0,1,0-.53,5.48,5.48,0,0,1,.14-.93,7,7,0,0,1,6.75-5.53A15.91,15.91,0,0,0,94,48H92A18,18,0,0,0,66.89,31.41,23,23,0,0,0,24.57,48,16,16,0,0,0,10,64h0A16,16,0,0,0,26,80H52.84l3.22-8H70.73l-3.22,8H94A15.92,15.92,0,0,0,104.47,76H75A3,3,0,0,1,72,73Z"/><path d="M102.09,70h6.7a15.89,15.89,0,0,0,1-3.77A9.85,9.85,0,0,1,102.09,70Z"/><path d="M102,56.05h-.11a1,1,0,0,0-.82.64,1,1,0,0,0,0,.55,1.43,1.43,0,0,0,.85.79H102a.83.83,0,0,0,.28,0l.12,0a3,3,0,0,1,3.22.38,4,4,0,0,0-.63-.94,3.91,3.91,0,0,0-2.29-1.28A3.69,3.69,0,0,0,102,56.05Z"/><path d="M109,72H75a1,1,0,0,0,0,2h34a1,1,0,1,0,0-2Z"/><path d="M79.17,28.64A20.05,20.05,0,0,1,93.55,43.77c.3.06.6.11.9.14a17.62,17.62,0,0,0,15.26-5.6,1.11,1.11,0,0,0-1-1.84,17.92,17.92,0,0,1-6.25.21A17.66,17.66,0,0,1,88.41,13a1.11,1.11,0,0,0-1.69-1.26A17.67,17.67,0,0,0,79.08,28C79.1,28.24,79.14,28.44,79.17,28.64Z"/><text x="0" y="135" fill="#000000" font-size="5px" font-weight="bold" font-family="'Helvetica Neue', Helvetica, Arial-Unicode, Arial, Sans-serif">Created by Jae Deasigner</text><text x="0" y="140" fill="#000000" font-size="5px" font-weight="bold" font-family="'Helvetica Neue', Helvetica, Arial-Unicode, Arial, Sans-serif">from the Noun Project</text></svg>